<svg width="76" height="67" viewBox="0 0 76 67" fill="none" xmlns="http://www.w3.org/2000/svg">
<g id="Group 3">
<path id="Vector" d="M22.0995 31.2807L24.0651 29.3151L25.0116 30.1156C25.4641 30.5043 25.9012 30.4879 26.3217 30.0673L37.606 18.7831L36.2959 17.327L38.3582 15.2646L42.7264 19.6329L38.4558 37.6387L38.5042 37.6871L47.5066 28.6847L45.978 27.0101L48.0403 24.9477L53.9613 30.8688L51.9957 32.8344L51.0492 32.0339C50.6286 31.6781 50.1838 31.7351 49.7149 32.204L36.3684 45.5506L33.5297 42.7119L37.8245 24.3908L37.7761 24.3425L28.6035 33.5151L30.108 35.1655L28.0456 37.2278L22.1004 31.2826L22.0995 31.2807Z" fill="white"/>
<path id="Vector_2" d="M30.3691 43.3036L36.44 58.8197H36.5115L42.6182 43.3036H49.6888V46.0843L48.5102 46.1868C47.7957 46.2554 47.4506 46.6557 47.4747 47.3886L48.3671 63.1107L50.5813 63.2132V66.1311H41.9752V63.3505L43.2612 63.248C43.9041 63.2025 44.2135 62.9047 44.1893 62.3556L43.5106 50.2379H43.4391L37.9396 63.9344H34.5469L29.1189 50.3752H29.0474L28.3328 63.1107L30.6543 63.2132V66.1311H22.2271V63.3505L23.513 63.248C24.0603 63.2025 24.3581 62.8931 24.4055 62.3208L25.3694 46.3589L23.1911 46.2216V43.3036H30.3691Z" fill="white"/>
<path id="Vector_3" d="M75.999 45.6675C75.8114 45.6424 75.8878 45.7981 75.882 45.8648C75.6664 48.3892 75.0911 50.8277 74.0972 53.1597C72.9399 55.8776 71.3281 58.2696 68.9593 60.0921C67.304 61.3655 65.4438 62.1448 63.3612 62.3787C62.3363 62.4938 62.3373 62.4986 62.3373 61.4921C62.3373 48.8572 62.3189 36.2223 62.3479 23.5874C62.3576 19.5527 60.9576 16.099 58.3432 13.096C55.7307 10.0948 52.456 8.06153 48.7635 6.65958C46.4702 5.78844 44.0965 5.23637 41.6629 4.95888C39.3289 4.69299 36.993 4.68235 34.6532 4.93084C30.8534 5.33499 27.2461 6.36662 23.8824 8.19012C20.6792 9.9266 17.9623 12.2181 15.9928 15.3236C14.7978 17.2071 14.0427 19.2558 13.7555 21.4709C13.6675 22.1525 13.6617 22.839 13.6617 23.5245C13.6617 36.3489 13.6617 49.1743 13.6617 61.9988C13.6617 62.4735 13.7168 62.4251 13.2392 62.4029C9.93253 62.254 7.30944 60.7225 5.14078 58.3305C2.84352 55.7964 1.49475 52.772 0.699024 49.4779C0.411867 48.2897 0.209793 47.0859 0.120842 45.8657C0.11214 45.742 0.110207 45.7429 -1.52588e-05 45.6675V41.1707C0.172086 41.1784 0.110207 41.0363 0.116008 40.9638C0.179821 40.1758 0.295844 39.3955 0.437972 38.6182C0.98038 35.6557 2.00138 32.8779 3.68662 30.3689C4.96191 28.47 6.53499 26.8718 8.56346 25.7696C8.83128 25.6236 8.927 25.4718 8.9241 25.1643C8.9096 23.5303 8.86319 21.8934 9.13101 20.271C9.58253 17.5348 10.5629 14.9997 12.0625 12.6705C14.9515 8.18432 18.9978 5.07877 23.8186 2.92364C27.9355 1.08274 32.2709 0.181623 36.7648 0.0230584C39.6731 -0.0803955 42.5553 0.16422 45.4076 0.757872C49.8 1.67155 53.8695 3.34229 57.5194 5.97021C60.8097 8.33902 63.4492 11.2783 65.204 14.962C66.4107 17.4961 67.0652 20.1647 67.0797 22.9802C67.0836 23.7401 67.0933 24.5001 67.0768 25.26C67.072 25.4969 67.1532 25.6168 67.3572 25.7203C67.9412 26.0161 68.4827 26.3816 68.9999 26.7828C71.3784 28.6305 72.9892 31.0447 74.1426 33.7887C75.1076 36.085 75.6674 38.4847 75.883 40.9657C75.8888 41.0372 75.8231 41.1832 76 41.1697V45.6666L75.999 45.6675Z" fill="white"/>
<path id="Vector_4" d="M57.5697 57.7117C57.5678 55.893 57.5649 54.0744 57.5629 52.2567C57.5629 51.6669 57.5629 51.0771 57.5629 50.4873C57.5629 48.3206 57.5639 46.1529 57.5649 43.9862C57.5668 41.4085 57.5697 38.8309 57.5716 36.2532C57.5765 36.0743 57.5861 35.8955 57.5861 35.7156C57.5861 32.6546 57.591 29.5935 57.5803 26.5324C57.5803 26.2781 57.6654 26.1138 57.854 25.9726C58.5607 25.4437 59.3526 25.1314 60.2286 25.0241C60.4538 24.997 60.5602 25.0309 60.5602 25.3093C60.5525 37.5856 60.5525 49.8618 60.5602 62.137C60.5602 62.3971 60.4751 62.4242 60.2518 62.4019C59.1892 62.2985 58.3548 61.8209 57.7592 60.9294C57.6374 60.7476 57.5832 60.5591 57.5842 60.3377C57.5881 59.4617 57.5765 58.5867 57.5707 57.7107L57.5697 57.7117Z" fill="url(#paint0_linear_33_60)" stroke="white" stroke-miterlimit="10"/>
<path id="Vector_5" d="M18.4332 52.3978C18.4332 54.7163 18.4322 57.0349 18.4312 59.3534C18.4254 59.6057 18.3906 59.862 18.4187 60.1104C18.469 60.5571 18.3007 60.91 18.0242 61.2339C17.4025 61.96 16.6145 62.3468 15.6612 62.4096C15.4939 62.4203 15.4243 62.3777 15.4456 62.2076C15.4533 62.1457 15.4466 62.0809 15.4466 62.0181C15.4466 49.8192 15.4466 37.6203 15.4466 25.4214C15.4466 24.9786 15.4543 24.9757 15.8797 25.0376C16.6861 25.1556 17.4199 25.4437 18.0812 25.9223C18.3094 26.0876 18.4216 26.2713 18.4206 26.5768C18.408 30.3756 18.4119 34.1744 18.4138 37.9732C18.4138 38.1095 18.4283 38.2459 18.4351 38.3832C18.4351 40.0839 18.4351 41.7846 18.4351 43.4853C18.4351 46.4555 18.4341 49.4266 18.4332 52.3968V52.3978Z" fill="url(#paint1_linear_33_60)" stroke="white" stroke-miterlimit="10"/>
</g>
<defs>
<linearGradient id="paint0_linear_33_60" x1="59.107" y1="26.5198" x2="59.0335" y2="61.7706" gradientUnits="userSpaceOnUse">
<stop offset="0.13" stop-color="#EE816B"/>
<stop offset="0.37" stop-color="#EA6684"/>
<stop offset="0.62" stop-color="#C24995"/>
<stop offset="0.82" stop-color="#A64995"/>
</linearGradient>
<linearGradient id="paint1_linear_33_60" x1="17.0738" y1="25.8546" x2="16.7779" y2="62.7355" gradientUnits="userSpaceOnUse">
<stop offset="0.13" stop-color="#EE816B"/>
<stop offset="0.37" stop-color="#EA6684"/>
<stop offset="0.62" stop-color="#C24995"/>
<stop offset="0.82" stop-color="#A64995"/>
</linearGradient>
</defs>
</svg>
